<?xml version="1.0" standalone="no"?>
<!DOCTYPE svg PUBLIC "-//W3C//DTD SVG 20010904//EN"
 "http://www.w3.org/TR/2001/REC-SVG-20010904/DTD/svg10.dtd">
<svg version="1.0" xmlns="http://www.w3.org/2000/svg"
 width="3195.000000pt" height="1125.000000pt" viewBox="0 0 1022.51 360"
 preserveAspectRatio="xMidYMid meet">

<g transform="translate(0.000000,1125.000000) scale(0.100000,-0.100000)"
fill="#000000" stroke="none">
<path d="M18687 7276 c-10 -24 -7 -351 3 -366 8 -13 109 -15 790 -18 533 -2
787 1 800 8 19 10 20 22 20 200 l0 190 -804 0 c-672 0 -805 -2 -809 -14z"/>
<path d="M2095 7128 c-3 -7 -4 -654 -3 -1438 l3 -1425 760 -3 c418 -1 770 0
783 3 l22 5 -2 1433 -3 1432 -778 3 c-617 2 -779 0 -782 -10z"/>
<path d="M9377 7133 c-4 -3 -7 -118 -7 -255 0 -136 -1 -249 -2 -250 -2 -1
-102 -4 -223 -8 l-220 -5 -3 -206 -2 -207 22 -6 c13 -3 114 -6 225 -6 l202 0
3 -803 3 -802 33 -49 c17 -27 32 -58 32 -68 0 -10 11 -23 24 -28 14 -5 29 -17
35 -27 15 -28 130 -82 227 -107 175 -45 374 -60 814 -59 406 0 793 17 898 39
l22 4 -2 188 -3 187 -160 -4 c-182 -4 -252 10 -305 59 l-30 28 0 711 c0 692 0
711 19 721 12 6 99 10 213 10 106 0 210 3 231 6 l37 7 0 208 0 209 -222 0
c-160 0 -230 4 -248 13 l-25 13 -5 244 -5 245 -786 3 c-432 1 -789 -1 -792 -5z"/>
<path d="M6925 6745 c-5 -3 -73 -9 -150 -15 -212 -14 -266 -24 -405 -75 -41
-15 -84 -29 -95 -32 -11 -4 -43 -21 -71 -40 -28 -18 -58 -33 -67 -33 -9 0 -18
-9 -22 -19 -3 -11 -15 -23 -25 -26 -11 -3 -29 -19 -40 -36 -12 -16 -29 -29
-39 -29 -35 0 -41 21 -41 147 l0 123 -822 -2 -823 -3 0 -1218 c0 -1210 0
-1218 20 -1223 11 -2 380 -3 820 -2 l800 3 5 943 5 943 31 27 c17 15 34 35 37
45 4 9 12 17 19 17 6 0 30 9 52 19 44 22 208 51 281 51 25 0 86 -7 135 -16
143 -24 196 -54 241 -132 l29 -51 0 -920 0 -921 23 -5 c12 -3 371 -4 797 -3
l775 3 0 1006 0 1005 -27 33 c-16 18 -28 41 -28 52 0 29 -18 59 -35 59 -8 0
-21 14 -30 30 -9 17 -22 30 -30 30 -7 0 -22 11 -33 25 -11 14 -26 25 -34 25
-8 0 -23 9 -33 20 -10 11 -26 20 -35 20 -10 0 -23 7 -30 15 -7 8 -21 15 -31
15 -10 0 -21 5 -24 10 -3 6 -17 10 -30 10 -13 0 -26 4 -29 9 -3 5 -18 11 -33
14 -16 3 -55 13 -88 22 -125 35 -236 51 -460 64 -226 14 -449 22 -460 16z"/>
<path d="M23605 6745 c-5 -3 -73 -9 -150 -15 -170 -11 -289 -29 -340 -50 -11
-4 -42 -15 -70 -25 -84 -28 -167 -67 -196 -91 -8 -8 -23 -14 -31 -14 -9 0 -18
-7 -22 -15 -3 -8 -16 -20 -28 -26 -13 -5 -31 -23 -40 -40 -18 -31 -48 -38 -66
-16 -7 7 -13 66 -14 133 l-3 119 -820 0 -820 0 -3 -1214 c-2 -965 0 -1216 10
-1223 15 -9 1598 -11 1622 -2 14 6 16 97 16 933 0 509 3 936 6 948 3 12 15 25
26 29 10 3 24 17 30 30 11 23 58 51 114 68 42 13 200 36 246 36 60 0 230 -28
243 -41 5 -5 15 -9 22 -9 22 0 87 -50 100 -78 8 -15 20 -38 28 -52 13 -21 15
-157 15 -942 l0 -918 23 -5 c12 -3 371 -4 797 -3 l775 3 3 985 c1 542 0 995
-3 1007 -3 12 -16 34 -29 50 -13 15 -27 43 -30 60 -5 19 -20 41 -36 53 -16 11
-31 29 -35 39 -3 11 -17 22 -30 25 -13 3 -27 15 -30 26 -3 11 -14 20 -24 20
-10 0 -24 7 -31 15 -6 8 -22 17 -33 21 -12 3 -29 12 -37 18 -8 7 -35 19 -60
26 -25 7 -49 17 -55 20 -5 4 -21 10 -35 13 -14 3 -52 13 -85 22 -124 35 -233
50 -455 64 -208 14 -453 22 -465 16z"/>
<path d="M27630 6744 c-14 -2 -135 -9 -270 -14 -343 -15 -515 -31 -680 -65
-41 -8 -99 -18 -128 -21 -29 -4 -55 -11 -58 -15 -3 -5 -17 -9 -31 -9 -15 0
-40 -4 -57 -10 -17 -5 -71 -22 -121 -36 -49 -15 -94 -31 -100 -36 -5 -4 -17
-8 -27 -8 -9 0 -40 -13 -68 -30 -28 -16 -62 -33 -75 -36 -14 -3 -25 -10 -25
-14 0 -4 -16 -15 -35 -24 -19 -9 -35 -21 -35 -27 0 -6 -13 -15 -30 -20 -16 -6
-30 -17 -30 -24 0 -8 -13 -23 -29 -35 -17 -11 -33 -31 -36 -43 -4 -12 -19 -32
-33 -44 l-27 -23 -3 -669 -2 -670 29 -30 c17 -18 32 -46 36 -69 4 -27 14 -43
30 -52 13 -7 29 -26 34 -41 6 -16 21 -33 35 -38 13 -6 27 -18 30 -29 4 -10 16
-24 29 -31 12 -6 40 -25 62 -41 65 -48 218 -118 335 -154 127 -38 172 -48 390
-87 199 -35 528 -53 995 -53 467 0 814 18 1030 53 132 22 190 32 225 41 19 4
60 14 90 20 30 7 93 26 140 42 47 16 93 32 104 35 10 3 37 16 60 29 22 13 55
30 71 37 17 8 36 21 44 30 7 10 19 17 25 17 7 0 22 11 34 25 12 14 28 25 35
25 8 0 19 11 25 25 7 14 23 30 37 37 14 6 25 20 25 31 0 10 14 32 30 47 18 17
30 38 30 53 0 14 14 51 32 83 30 56 32 65 36 192 l4 132 -821 0 -821 0 -1 -22
c-1 -13 -2 -41 -4 -63 -1 -22 -3 -106 -3 -186 l-2 -145 -41 -27 c-22 -15 -47
-27 -54 -27 -8 0 -16 -4 -19 -8 -3 -5 -39 -17 -81 -27 -61 -14 -103 -16 -223
-12 -133 4 -182 12 -234 38 -10 5 -23 9 -29 9 -6 0 -30 16 -52 36 -55 46 -57
63 -64 389 -4 246 -3 262 14 278 18 16 104 17 1215 19 658 2 1200 7 1205 11 9
10 18 623 9 671 -4 19 -17 46 -31 62 -13 15 -27 44 -30 64 -4 25 -16 44 -36
59 -16 12 -29 27 -29 35 0 7 -11 18 -24 24 -14 6 -32 23 -42 37 -9 14 -24 25
-34 25 -10 0 -24 7 -31 16 -7 9 -22 20 -34 25 -11 5 -27 13 -35 18 -30 19
-107 49 -190 76 -47 15 -95 31 -108 36 -13 5 -34 9 -47 9 -13 0 -26 4 -29 9
-3 4 -27 11 -53 14 -27 4 -82 13 -123 22 -150 32 -323 49 -630 64 -249 12
-637 21 -670 15z m248 -430 c68 -7 159 -32 167 -45 4 -5 14 -9 24 -9 10 0 23
-11 29 -25 6 -14 18 -25 26 -25 30 0 35 -39 37 -255 1 -174 -2 -219 -12 -226
-8 -5 -180 -9 -382 -9 -311 0 -373 2 -397 15 l-30 16 0 160 c0 123 3 167 15
189 8 16 19 46 23 67 5 24 16 42 30 49 13 6 28 18 35 27 20 26 135 60 247 72
58 7 111 10 118 8 8 -1 39 -6 70 -9z"/>
<path d="M11930 6661 c0 -39 6 -56 26 -80 18 -22 28 -50 35 -97 6 -46 17 -75
34 -95 14 -18 26 -48 30 -77 11 -83 17 -103 30 -108 18 -7 35 -58 35 -101 0
-37 15 -72 37 -88 7 -5 19 -46 27 -89 9 -50 20 -84 30 -92 20 -14 36 -66 36
-116 0 -24 7 -45 19 -57 31 -31 41 -57 41 -104 0 -32 8 -56 30 -89 20 -30 33
-65 38 -107 6 -41 16 -69 31 -85 16 -17 25 -43 31 -90 6 -47 15 -74 33 -95 17
-21 26 -47 31 -90 5 -43 14 -69 32 -90 17 -21 26 -46 31 -91 4 -45 13 -70 31
-91 17 -21 26 -48 32 -95 6 -46 15 -73 30 -89 23 -24 39 -79 40 -129 0 -17 9
-39 20 -51 11 -11 26 -39 33 -60 l14 -40 899 -2 c531 -2 905 1 913 6 9 6 17
35 22 75 4 47 14 77 33 104 15 23 26 52 26 73 1 55 17 109 40 134 15 16 23 42
28 93 6 50 15 81 34 109 19 27 27 56 31 102 4 44 12 73 28 94 14 20 27 59 35
108 8 50 20 88 35 108 16 21 25 52 30 96 4 46 14 76 33 103 16 24 26 51 26 74
0 51 16 88 38 88 10 0 37 -22 59 -50 34 -41 41 -59 47 -110 5 -41 14 -68 28
-82 22 -22 38 -68 38 -112 0 -17 12 -47 27 -69 18 -26 29 -58 34 -98 5 -41 14
-67 32 -89 19 -22 28 -47 33 -92 4 -39 14 -68 26 -80 25 -25 38 -61 38 -103 0
-35 18 -85 30 -85 11 0 28 -49 35 -103 4 -28 15 -57 27 -69 24 -24 38 -69 38
-120 0 -28 8 -44 35 -72 l35 -36 805 2 c570 2 807 6 815 14 6 6 15 39 20 73 6
42 16 71 34 92 17 20 26 43 26 65 0 36 27 114 40 114 12 0 30 58 30 95 0 21
11 46 30 70 21 27 30 49 30 76 0 45 14 87 40 114 11 12 21 44 25 78 5 41 15
67 36 93 21 26 29 48 29 76 0 41 18 86 44 107 10 8 16 29 16 53 0 44 19 97 43
116 10 8 19 38 23 74 5 43 14 68 32 90 18 22 28 48 33 89 5 40 14 67 31 88 17
20 27 47 32 87 5 43 14 66 32 85 17 18 27 42 30 70 8 73 12 84 39 113 16 17
25 39 25 59 0 47 17 97 39 118 14 13 22 38 27 79 5 45 14 70 35 97 19 23 29
48 29 68 0 18 3 47 6 64 l7 31 -765 0 -765 0 -6 -66 c-3 -49 -10 -71 -27 -89
-16 -17 -24 -44 -32 -101 -7 -56 -17 -90 -35 -116 -19 -28 -28 -57 -33 -113
-6 -57 -14 -84 -34 -113 -17 -25 -26 -51 -26 -78 0 -51 -17 -109 -36 -129 -10
-9 -22 -53 -30 -105 -8 -60 -20 -99 -34 -118 -15 -20 -25 -53 -30 -99 -9 -86
-19 -106 -66 -128 -37 -17 -38 -17 -56 5 -10 13 -18 38 -18 61 0 38 -17 89
-30 89 -12 0 -29 48 -36 101 -4 31 -16 62 -30 79 -16 18 -27 48 -32 89 -6 41
-16 69 -31 85 -14 14 -25 41 -27 68 -8 71 -12 83 -38 111 -18 20 -27 43 -32
88 -5 43 -14 69 -32 90 -17 21 -26 48 -31 88 -5 41 -15 67 -33 89 -17 21 -27
47 -32 87 -4 40 -14 67 -34 91 l-27 34 -700 0 -700 -1 -27 -36 c-18 -22 -28
-49 -28 -69 0 -52 -21 -135 -35 -140 -19 -8 -26 -30 -35 -112 -5 -52 -14 -83
-33 -110 -17 -26 -26 -55 -30 -100 -4 -45 -13 -74 -30 -100 -18 -26 -28 -60
-35 -116 -8 -57 -16 -84 -32 -102 -17 -17 -24 -41 -30 -99 -6 -57 -14 -84 -34
-113 -16 -24 -26 -52 -27 -78 -1 -54 -11 -85 -31 -98 -14 -8 -25 -2 -62 37
-39 42 -45 55 -51 105 -3 31 -9 62 -13 68 -4 6 -15 23 -25 37 -10 14 -22 51
-26 82 -4 31 -17 69 -30 85 -12 17 -23 42 -26 57 -2 16 -7 44 -10 64 -3 20
-16 49 -29 64 -24 28 -36 65 -36 113 0 14 -12 43 -27 65 -18 26 -29 58 -34 98
-5 41 -14 67 -32 88 -17 20 -27 48 -32 88 -4 34 -14 66 -25 78 -25 27 -40 69
-40 111 l0 34 -695 0 -695 0 0 -49z"/>
<path d="M18687 6543 c-4 -91 -7 -638 -7 -1214 0 -1026 0 -1049 19 -1059 13
-7 281 -10 799 -10 644 0 782 2 791 14 8 10 10 337 9 1222 l-3 1209 -801 3
-801 2 -6 -167z"/>
</g>
</svg>
