<?xml version="1.0" standalone="no"?>
<!DOCTYPE svg PUBLIC "-//W3C//DTD SVG 20010904//EN"
 "http://www.w3.org/TR/2001/REC-SVG-20010904/DTD/svg10.dtd">
<svg version="1.0" xmlns="http://www.w3.org/2000/svg"
 width="2026.000000pt" height="1000.000000pt" viewBox="0 0 2026.000000 1000.000000"
 preserveAspectRatio="xMidYMid meet">

<g transform="translate(0.000000,1000.000000) scale(0.100000,-0.100000)"
fill="#000000" stroke="none">
<path d="M2809 7860 c-651 -44 -1236 -269 -1739 -668 -126 -100 -346 -321
-450 -452 -244 -307 -428 -672 -525 -1042 -221 -845 -28 -1742 525 -2438 104
-131 324 -352 450 -452 460 -365 984 -582 1575 -654 187 -22 523 -22 710 0
705 85 1320 380 1806 865 231 231 397 459 538 741 488 975 366 2119 -319 2980
-104 131 -324 352 -450 452 -535 425 -1157 650 -1855 672 -82 2 -202 1 -266
-4z m-830 -344 c40 -21 57 -53 64 -119 9 -89 66 -235 115 -293 15 -17 50 -60
77 -94 42 -53 114 -121 271 -260 26 -23 185 -137 299 -214 28 -19 60 -42 72
-52 12 -11 40 -30 63 -44 44 -27 48 -36 23 -57 -48 -38 -183 -123 -195 -123
-11 0 -190 121 -273 185 -11 8 -45 34 -75 57 -30 24 -71 55 -90 69 -65 49
-270 251 -332 328 -127 156 -198 328 -198 481 0 72 23 124 63 140 34 13 85 12
116 -4z m2303 -6 c32 -24 58 -78 58 -118 0 -87 -52 -250 -115 -361 -101 -178
-381 -450 -665 -646 -19 -13 -60 -41 -90 -63 -65 -46 -227 -156 -450 -306
-207 -140 -263 -180 -473 -338 -101 -76 -136 -108 -237 -209 -118 -121 -164
-182 -207 -284 -19 -44 -39 -88 -44 -97 -5 -10 -9 -48 -9 -85 0 -88 46 -215
109 -301 40 -56 233 -259 272 -287 39 -29 160 -125 209 -166 30 -25 111 -85
180 -132 152 -105 160 -112 160 -124 0 -11 -194 -143 -209 -143 -15 0 -279
185 -363 254 -20 17 -65 54 -100 81 -95 77 -288 273 -334 341 -63 91 -121 206
-146 287 -32 103 -32 272 0 375 79 254 282 485 687 782 61 44 123 90 139 103
16 12 44 31 62 42 17 11 74 49 125 85 52 36 108 74 126 85 118 75 477 326 531
372 18 15 43 32 55 37 56 24 308 267 392 378 24 31 58 89 75 130 18 40 37 79
42 85 6 7 14 46 18 86 10 87 25 124 59 142 39 21 114 19 143 -5z m-879 -1382
c99 -69 249 -177 332 -240 124 -93 309 -269 395 -373 77 -95 144 -215 170
-305 11 -41 26 -91 32 -111 21 -74 -6 -269 -53 -380 -53 -126 -195 -308 -340
-440 -183 -164 -323 -269 -699 -524 -69 -46 -181 -123 -250 -170 -69 -47 -143
-97 -165 -112 -73 -48 -339 -251 -400 -305 -103 -92 -216 -211 -243 -258 -14
-25 -29 -47 -33 -50 -26 -20 -99 -226 -99 -279 0 -48 -32 -99 -67 -107 -15 -3
-33 -7 -40 -9 -21 -7 -83 16 -103 37 -30 33 -38 75 -29 158 11 102 25 151 72
244 95 192 288 399 569 610 57 43 116 87 132 99 31 24 170 119 451 309 99 67
203 138 231 158 28 19 80 55 115 79 197 137 359 272 469 389 103 111 120 134
173 233 69 129 86 272 42 349 -8 14 -31 59 -51 100 -32 66 -193 270 -213 270
-3 0 -34 28 -69 61 -83 81 -317 255 -551 411 -14 10 -26 22 -26 28 0 8 197
146 213 149 2 1 17 -9 35 -21z m55 -2443 c43 -30 85 -61 92 -70 7 -8 17 -15
23 -15 25 0 368 -280 447 -365 19 -21 47 -49 62 -64 39 -38 122 -153 163 -227
50 -89 95 -225 101 -309 6 -67 5 -72 -25 -112 -81 -111 -231 -49 -231 95 0 51
-26 146 -48 180 -10 15 -36 54 -58 87 -85 128 -310 340 -504 473 -28 19 -274
193 -305 216 l-20 14 20 20 c25 24 185 132 195 132 5 0 44 -25 88 -55z"/>
</g>
</svg>
